<svg width="35" height="35" viewBox="0 0 35 35" fill="none" xmlns="http://www.w3.org/2000/svg">
<path d="M17.5 0C7.84972 0 0 7.84972 0 17.5C0 27.1504 7.84972 35 17.5 35C27.1504 35 35 27.1504 35 17.5C35 7.84972 27.1504 0 17.5 0Z" fill="#3C50E0"/>
<path d="M17.9116 23.7549C14.6955 23.7549 12.0782 21.1378 12.0782 17.9216C12.0782 17.0232 12.2979 16.1832 12.6615 15.423L7.42725 7.42822L15.411 12.6735C16.1901 12.2934 17.0446 12.0934 17.9116 12.0882C21.1278 12.0882 23.7449 14.7054 23.7449 17.9216C23.7449 21.1378 21.1278 23.7549 17.9116 23.7549Z" fill="white"/>
</svg>
