<svg width="174" height="35" viewBox="0 0 174 35" fill="none" xmlns="http://www.w3.org/2000/svg">
<path d="M48.4727 10.7798H54.4336V27.8548H57.999V10.7798H63.9599V7.49297H48.4727V10.7798Z" fill="white"/>
<path d="M67.9392 28.2169C70.084 28.2169 71.9503 27.242 72.5352 25.8214L72.7859 27.8548H75.7664V19.4984C75.7664 15.6823 73.4823 13.6767 69.7776 13.6767C66.0451 13.6767 63.5938 15.6265 63.5938 18.607H66.4907C66.4907 17.1586 67.6049 16.3229 69.6105 16.3229C71.3375 16.3229 72.4516 17.075 72.4516 18.9413V19.2477L68.3292 19.5541C65.0702 19.8048 63.2317 21.3925 63.2317 23.9273C63.2317 26.5177 65.0144 28.2169 67.9392 28.2169ZM69.0534 25.6542C67.5214 25.6542 66.6857 25.0414 66.6857 23.788C66.6857 22.6738 67.4935 21.9774 69.6105 21.7824L72.4795 21.5596V22.2838C72.4795 24.4008 71.1425 25.6542 69.0534 25.6542Z" fill="white"/>
<path d="M80.8039 11.3369C81.9181 11.3369 82.8373 10.4177 82.8373 9.27567C82.8373 8.13363 81.9181 7.24228 80.8039 7.24228C79.634 7.24228 78.7148 8.13363 78.7148 9.27567C78.7148 10.4177 79.634 11.3369 80.8039 11.3369ZM79.1048 27.8548H82.5031V14.0945H79.1048V27.8548Z" fill="white"/>
<path d="M89.4402 27.8548V7.13086H86.0698V27.8548H89.4402Z" fill="white"/>
<path d="M95.2612 27.8548L96.9046 23.1473H104.509L106.152 27.8548H109.913L102.559 7.49297H98.9101L91.5565 27.8548H95.2612ZM100.275 13.5653C100.47 13.0082 100.637 12.3954 100.721 12.0054C100.776 12.4233 100.971 13.0361 101.139 13.5653L103.478 20.139H97.9631L100.275 13.5653Z" fill="white"/>
<path d="M116.994 28.2169C119.083 28.2169 120.865 27.2977 121.701 25.71L121.924 27.8548H125.044V7.13086H121.673V15.8494C120.81 14.4845 119.11 13.6767 117.188 13.6767C113.038 13.6767 110.531 16.7407 110.531 21.0304C110.531 25.2921 113.01 28.2169 116.994 28.2169ZM117.746 25.0972C115.378 25.0972 113.929 23.3702 113.929 20.9189C113.929 18.4677 115.378 16.7129 117.746 16.7129C120.113 16.7129 121.645 18.4399 121.645 20.9189C121.645 23.398 120.113 25.0972 117.746 25.0972Z" fill="white"/>
<path d="M131.983 27.8548V20.0554C131.983 17.8271 133.292 16.7686 134.908 16.7686C136.524 16.7686 137.554 17.7992 137.554 19.7212V27.8548H140.952V20.0554C140.952 17.7992 142.206 16.7407 143.849 16.7407C145.465 16.7407 146.523 17.7714 146.523 19.749V27.8548H149.894V18.8577C149.894 15.6823 148.055 13.6767 144.713 13.6767C142.624 13.6767 141.008 14.7073 140.312 16.2951C139.588 14.7073 138.139 13.6767 136.05 13.6767C134.072 13.6767 132.68 14.5681 131.983 15.7101L131.705 14.0945H128.585V27.8548H131.983Z" fill="white"/>
<path d="M154.929 11.3369C156.043 11.3369 156.962 10.4177 156.962 9.27567C156.962 8.13363 156.043 7.24228 154.929 7.24228C153.759 7.24228 152.84 8.13363 152.84 9.27567C152.84 10.4177 153.759 11.3369 154.929 11.3369ZM153.23 27.8548H156.628V14.0945H153.23V27.8548Z" fill="white"/>
<path d="M163.537 27.8548V20.4454C163.537 18.217 164.819 16.7686 166.908 16.7686C168.663 16.7686 169.805 17.8828 169.805 20.1947V27.8548H173.203V19.3869C173.203 15.8215 171.42 13.6767 167.966 13.6767C166.1 13.6767 164.429 14.4845 163.565 15.8772L163.287 14.0945H160.139V27.8548H163.537Z" fill="white"/>
<path d="M17.5 0C7.84972 0 0 7.84972 0 17.5C0 27.1504 7.84972 35 17.5 35C27.1504 35 35 27.1504 35 17.5C35 7.84972 27.1504 0 17.5 0Z" fill="#3C50E0"/>
<path d="M17.9116 23.7549C14.6955 23.7549 12.0782 21.1378 12.0782 17.9216C12.0782 17.0232 12.2979 16.1832 12.6615 15.423L7.42725 7.42822L15.411 12.6735C16.1901 12.2934 17.0446 12.0934 17.9116 12.0882C21.1278 12.0882 23.7449 14.7055 23.7449 17.9216C23.7449 21.1378 21.1278 23.7549 17.9116 23.7549Z" fill="white"/>
</svg>
